<svg xmlns:xlink="http://www.w3.org/1999/xlink"  width="27" height="21" viewBox="0 0 27 21" fill="none" xmlns="http://www.w3.org/2000/svg">
<path d="M-3.87004e-05 10.4916C0.00911918 10.8495 0.117025 11.0653 0.255158 11.2201L7.83814 20.5446C8.19633 21.0492 9.00802 21.129 9.51548 20.7193C10.0229 20.3096 10.0499 19.5436 9.64275 19.0877L3.60917 11.6571L25.6654 11.6571C26.3097 11.6571 26.832 11.1353 26.832 10.4916C26.832 9.84783 26.3097 9.326 25.6654 9.326L3.60917 9.326L9.64275 1.8955C10.1046 1.4351 9.97334 0.627416 9.48585 0.194174C9.11057 -0.139295 8.11043 -0.0330472 7.83814 0.438542L0.255158 9.76309C0.0576795 10.0046 -0.0024419 10.1842 -3.87004e-05 10.4916Z" fill="#000"/>
</svg>