<svg viewBox="0 0 144 144" fill="none" xmlns="http://www.w3.org/2000/svg"><path d="M115.359 75.4503C114.039 74.8803 112.759 74.2403 111.449 73.6503C110.639 73.2803 110.319 72.6703 110.449 71.8203C110.509 71.4303 110.609 71.0503 110.709 70.6703C111.819 66.6003 112.929 62.5203 114.069 58.4603C114.249 57.8303 114.229 57.6203 113.459 57.7903C109.889 58.5803 106.299 59.3203 102.719 60.0903C100.809 60.5003 100.109 60.0903 99.5692 58.1903C99.1292 56.6503 98.6892 55.1203 98.2392 53.5903C97.8792 53.6803 97.7492 53.9202 97.5892 54.1002C94.5692 57.4802 91.5492 60.8602 88.5292 64.2502C88.1292 64.7002 87.6892 65.0803 87.1092 65.2703C86.0892 65.6103 85.2992 65.1903 85.0492 64.1503C84.8992 63.5103 84.9492 62.8602 85.0692 62.2202C86.1592 56.4402 87.2492 50.6602 88.3392 44.8802C88.6392 43.2902 88.9292 41.6902 89.2492 39.9802C88.9392 40.1202 88.7592 40.1903 88.5892 40.2703C86.8092 41.1903 85.0592 42.1503 83.2592 43.0103C81.4392 43.8803 80.3692 43.4802 79.4292 41.7402C77.1092 37.4202 74.7992 33.1003 72.4692 28.7903C72.3292 28.5403 72.2892 28.1903 71.9192 28.0703C71.8192 28.2503 71.7192 28.4203 71.6292 28.5903C69.2292 33.0503 66.8292 37.5202 64.4292 41.9802C63.7092 43.3302 62.6892 43.7403 61.2592 43.2103C60.5192 42.9403 59.8292 42.5503 59.1292 42.1903C57.7092 41.4703 56.2992 40.7303 54.8192 39.9603C54.8192 40.1903 54.7992 40.3003 54.8192 40.4003C55.7992 45.5703 56.7992 50.7403 57.7492 55.9203C58.1892 58.3303 58.7792 60.7103 59.0192 63.1503C59.0992 63.9803 58.9992 64.8602 58.0992 65.2502C57.1992 65.6402 56.4692 65.1603 55.7992 64.5903C55.6892 64.5003 55.6092 64.3903 55.5092 64.2803C52.6992 61.1303 49.8892 57.9703 47.0692 54.8203C46.6892 54.3903 46.3492 53.9003 45.7692 53.5303C45.2592 55.3003 44.7892 57.0003 44.2792 58.7003C43.9092 59.9403 43.0992 60.4303 41.8392 60.1803C40.2692 59.8703 38.6992 59.5303 37.1292 59.2003C34.7092 58.6903 32.2992 58.1803 29.7392 57.6503C30.0792 58.8803 30.3792 59.9803 30.6792 61.0803C31.5792 64.3603 32.4892 67.6503 33.3792 70.9303C33.8592 72.7103 33.6192 73.1603 32.0092 73.9003C30.8292 74.4403 29.6692 75.0203 28.4892 75.5403C27.9592 75.7703 28.0192 75.9703 28.4192 76.2603C28.6892 76.4603 28.9492 76.6803 29.2092 76.9003C35.7692 82.2303 42.3292 87.5503 48.8792 92.8903C50.0792 93.8703 50.3792 94.8703 49.9292 96.3303C49.4592 97.8903 48.9792 99.4503 48.4992 101.02C48.2192 101.94 48.2592 102.01 49.1992 101.89C51.8492 101.54 54.5092 101.19 57.1492 100.79C61.0492 100.2 64.9492 99.6003 68.8692 99.2003C68.9892 99.1903 69.1592 99.1803 69.3192 99.1703L68.6392 115.96H75.2892L74.6092 99.1603C74.8592 99.1803 75.0892 99.1902 75.2692 99.2202C78.0692 99.5602 80.8592 99.9403 83.6492 100.33C87.3292 100.84 91.0092 101.38 94.6892 101.89C95.7192 102.03 95.7592 101.95 95.4492 100.94C94.9592 99.3503 94.4692 97.7603 93.9892 96.1703C93.5992 94.8903 93.9592 93.8202 94.9692 92.9902C97.7192 90.7402 100.479 88.5103 103.229 86.2803C107.299 82.9803 111.359 79.6702 115.429 76.3802C115.979 75.9402 115.969 75.7502 115.319 75.4702L115.359 75.4503Z" fill="currentcolor"></path></svg>